<?xml version="1.0" encoding="utf-8" ?>
<svg baseProfile="tiny" height="100%" version="1.2" width="100%" xmlns="http://www.w3.org/2000/svg" xmlns:ev="http://www.w3.org/2001/xml-events" xmlns:xlink="http://www.w3.org/1999/xlink"><defs /><path d="M 44.00,42.00 L 43.00,42.00 L 42.00,42.00 L 41.00,42.00 L 40.00,42.00 L 39.00,42.00 L 38.00,42.00 L 37.00,42.00 L 36.00,42.00 L 35.00,42.00 L 34.00,42.00 L 33.00,42.00 L 32.00,41.00 L 32.00,41.00 L 31.00,41.00 L 30.00,41.00 L 29.00,41.00 L 28.00,41.00 L 27.00,40.00 L 27.00,40.00 L 26.00,40.00 L 25.00,40.00 L 24.00,39.00 L 24.00,39.00 L 23.00,39.00 L 22.00,39.00 L 21.00,38.00 L 21.00,38.00 L 20.00,38.00 L 19.00,37.00 L 19.00,37.00 L 18.00,37.00 L 17.00,36.00 L 17.00,36.00 L 16.00,35.00 L 16.00,35.00 L 15.00,35.00 L 14.00,34.00 L 14.00,34.00 L 13.00,33.00 L 13.00,33.00 L 12.00,32.00 L 12.00,32.00 L 11.00,31.00 L 11.00,31.00 L 10.00,30.00 L 10.00,29.00 L 10.00,29.00 L 9.00,28.00 L 9.00,28.00 L 8.00,27.00 L 8.00,26.00 L 9.00,25.00 L 9.00,25.00 L 10.00,24.00 L 10.00,24.00 L 11.00,23.00 L 11.00,23.00 L 12.00,22.00 L 12.00,22.00 L 13.00,21.00 L 13.00,21.00 L 14.00,20.00 L 14.00,20.00 L 15.00,19.00 L 15.00,19.00 L 16.00,18.00 L 17.00,18.00 L 17.00,18.00 L 18.00,17.00 L 18.00,17.00 L 19.00,16.00 L 20.00,16.00 L 20.00,16.00 L 21.00,15.00 L 22.00,15.00 L 22.00,15.00 L 23.00,14.00 L 24.00,14.00 L 24.00,14.00 L 25.00,13.00 L 26.00,13.00 L 26.00,13.00 L 27.00,12.00 L 28.00,12.00 L 29.00,12.00 L 30.00,12.00 L 30.00,12.00 L 31.00,11.00 L 32.00,11.00 L 33.00,11.00 L 34.00,11.00 L 35.00,11.00 L 36.00,11.00 L 37.00,11.00 L 37.00,11.00 L 38.00,10.00 L 38.00,10.00 L 38.00,10.00 L 37.00,9.00 L 38.00,8.00 L 38.00,8.00 L 39.00,7.00 L 40.00,8.00 L 40.00,8.00 L 41.00,9.00 L 41.00,9.00 L 42.00,10.00 L 42.00,10.00 L 43.00,11.00 L 43.00,11.00 L 44.00,12.00 L 44.00,12.00 L 45.00,13.00 L 45.00,13.00 L 46.00,14.00 L 46.00,14.00 L 47.00,15.00 L 47.00,15.00 L 48.00,16.00 L 47.00,17.00 L 47.00,17.00 L 46.00,18.00 L 46.00,18.00 L 45.00,19.00 L 45.00,19.00 L 44.00,20.00 L 44.00,20.00 L 43.00,21.00 L 43.00,21.00 L 42.00,22.00 L 42.00,22.00 L 41.00,23.00 L 40.00,23.00 L 40.00,23.00 L 39.00,24.00 L 38.00,23.00 L 38.00,23.00 L 37.00,22.00 L 37.00,22.00 L 36.00,22.00 L 35.00,22.00 L 34.00,22.00 L 34.00,22.00 L 33.00,23.00 L 32.00,23.00 L 31.00,23.00 L 30.00,23.00 L 30.00,23.00 L 29.00,24.00 L 28.00,24.00 L 28.00,24.00 L 27.00,25.00 L 26.00,25.00 L 26.00,25.00 L 25.00,26.00 L 25.00,26.00 L 25.00,27.00 L 25.00,27.00 L 26.00,27.00 L 27.00,28.00 L 27.00,28.00 L 28.00,28.00 L 29.00,28.00 L 30.00,29.00 L 30.00,29.00 L 31.00,29.00 L 32.00,29.00 L 33.00,30.00 L 33.00,30.00 L 34.00,30.00 L 35.00,30.00 L 36.00,30.00 L 37.00,30.00 L 38.00,30.00 L 39.00,30.00 L 40.00,30.00 L 41.00,30.00 L 42.00,30.00 L 43.00,30.00 L 44.00,30.00 L 44.00,30.00 L 45.00,29.00 L 46.00,29.00 L 47.00,29.00 L 48.00,29.00 L 48.00,29.00 L 49.00,28.00 L 50.00,28.00 L 50.00,28.00 L 51.00,27.00 L 52.00,27.00 L 52.00,27.00 L 53.00,26.00 L 54.00,26.00 L 54.00,26.00 L 55.00,25.00 L 55.00,25.00 L 56.00,24.00 L 56.00,24.00 L 57.00,23.00 L 58.00,23.00 L 58.00,23.00 L 58.00,22.00 L 59.00,21.00 L 59.00,21.00 L 60.00,20.00 L 60.00,20.00 L 61.00,19.00 L 62.00,19.00 L 63.00,19.00 L 64.00,20.00 L 64.00,20.00 L 65.00,21.00 L 65.00,21.00 L 66.00,22.00 L 66.00,23.00 L 66.00,23.00 L 67.00,24.00 L 67.00,24.00 L 68.00,25.00 L 68.00,25.00 L 69.00,26.00 L 69.00,27.00 L 69.00,28.00 L 68.00,29.00 L 68.00,29.00 L 67.00,30.00 L 67.00,30.00 L 66.00,31.00 L 66.00,31.00 L 65.00,32.00 L 65.00,32.00 L 64.00,33.00 L 64.00,33.00 L 63.00,34.00 L 63.00,34.00 L 62.00,35.00 L 62.00,35.00 L 61.00,36.00 L 60.00,36.00 L 60.00,36.00 L 59.00,37.00 L 58.00,37.00 L 58.00,37.00 L 57.00,38.00 L 56.00,38.00 L 56.00,38.00 L 55.00,39.00 L 54.00,39.00 L 54.00,39.00 L 53.00,40.00 L 52.00,40.00 L 51.00,40.00 L 50.00,40.00 L 50.00,40.00 L 49.00,41.00 L 48.00,41.00 L 47.00,41.00 L 46.00,41.00 L 45.00,41.00 L 45.00,41.00 L 44.00,42.00 Z" fill="#E30613" stroke="none" /><path d="M 49.00,56.00 L 48.00,56.00 L 47.00,56.00 L 46.00,56.00 L 45.00,56.00 L 44.00,56.00 L 43.00,56.00 L 42.00,56.00 L 41.00,56.00 L 40.00,56.00 L 39.00,56.00 L 38.00,56.00 L 37.00,56.00 L 36.00,56.00 L 35.00,56.00 L 34.00,56.00 L 33.00,56.00 L 32.00,56.00 L 31.00,56.00 L 30.00,56.00 L 29.00,56.00 L 28.00,55.00 L 28.00,55.00 L 27.00,55.00 L 26.00,55.00 L 25.00,55.00 L 24.00,54.00 L 24.00,54.00 L 23.00,54.00 L 22.00,54.00 L 21.00,54.00 L 20.00,53.00 L 20.00,53.00 L 19.00,53.00 L 18.00,52.00 L 18.00,52.00 L 17.00,52.00 L 16.00,51.00 L 16.00,51.00 L 15.00,51.00 L 14.00,50.00 L 14.00,50.00 L 13.00,50.00 L 12.00,49.00 L 12.00,49.00 L 11.00,48.00 L 11.00,48.00 L 10.00,48.00 L 9.00,47.00 L 9.00,47.00 L 8.00,46.00 L 8.00,46.00 L 7.00,45.00 L 7.00,45.00 L 6.00,44.00 L 6.00,44.00 L 5.00,43.00 L 5.00,43.00 L 4.00,42.00 L 4.00,41.00 L 4.00,41.00 L 3.00,40.00 L 3.00,39.00 L 3.00,38.00 L 3.00,37.00 L 3.00,36.00 L 4.00,35.00 L 4.00,35.00 L 4.00,34.00 L 4.00,33.00 L 5.00,32.00 L 5.00,32.00 L 5.00,31.00 L 6.00,30.00 L 7.00,30.00 L 8.00,31.00 L 8.00,31.00 L 9.00,32.00 L 9.00,33.00 L 9.00,33.00 L 10.00,34.00 L 10.00,34.00 L 11.00,35.00 L 11.00,35.00 L 12.00,36.00 L 12.00,36.00 L 13.00,37.00 L 13.00,37.00 L 14.00,37.00 L 15.00,38.00 L 15.00,38.00 L 16.00,39.00 L 16.00,39.00 L 17.00,39.00 L 18.00,40.00 L 18.00,40.00 L 19.00,40.00 L 20.00,41.00 L 20.00,41.00 L 21.00,41.00 L 22.00,42.00 L 22.00,42.00 L 23.00,42.00 L 24.00,42.00 L 25.00,43.00 L 25.00,43.00 L 26.00,43.00 L 27.00,43.00 L 28.00,43.00 L 29.00,44.00 L 29.00,44.00 L 30.00,44.00 L 31.00,44.00 L 32.00,44.00 L 33.00,44.00 L 34.00,44.00 L 35.00,45.00 L 35.00,45.00 L 36.00,45.00 L 37.00,45.00 L 38.00,45.00 L 39.00,45.00 L 40.00,45.00 L 41.00,45.00 L 42.00,45.00 L 42.00,45.00 L 43.00,44.00 L 44.00,44.00 L 45.00,44.00 L 46.00,44.00 L 47.00,44.00 L 48.00,44.00 L 49.00,44.00 L 49.00,44.00 L 50.00,43.00 L 51.00,43.00 L 52.00,43.00 L 52.00,43.00 L 53.00,42.00 L 54.00,42.00 L 55.00,42.00 L 55.00,42.00 L 56.00,41.00 L 57.00,41.00 L 58.00,41.00 L 58.00,41.00 L 59.00,40.00 L 59.00,40.00 L 60.00,39.00 L 61.00,39.00 L 61.00,39.00 L 62.00,38.00 L 63.00,38.00 L 63.00,38.00 L 64.00,37.00 L 64.00,37.00 L 65.00,36.00 L 65.00,36.00 L 66.00,35.00 L 66.00,35.00 L 67.00,34.00 L 67.00,34.00 L 68.00,33.00 L 68.00,33.00 L 69.00,32.00 L 69.00,32.00 L 70.00,31.00 L 70.00,31.00 L 71.00,30.00 L 72.00,31.00 L 72.00,31.00 L 73.00,32.00 L 73.00,33.00 L 73.00,34.00 L 73.00,34.00 L 74.00,35.00 L 74.00,36.00 L 74.00,36.00 L 75.00,37.00 L 75.00,38.00 L 75.00,39.00 L 74.00,40.00 L 74.00,40.00 L 74.00,41.00 L 73.00,42.00 L 73.00,42.00 L 72.00,43.00 L 72.00,43.00 L 71.00,44.00 L 71.00,44.00 L 70.00,45.00 L 70.00,45.00 L 69.00,46.00 L 69.00,46.00 L 68.00,47.00 L 68.00,47.00 L 67.00,48.00 L 67.00,48.00 L 66.00,49.00 L 65.00,49.00 L 65.00,49.00 L 64.00,50.00 L 64.00,50.00 L 63.00,51.00 L 62.00,51.00 L 62.00,51.00 L 61.00,52.00 L 60.00,52.00 L 59.00,52.00 L 59.00,52.00 L 58.00,53.00 L 57.00,53.00 L 57.00,53.00 L 56.00,54.00 L 55.00,54.00 L 54.00,54.00 L 54.00,54.00 L 53.00,55.00 L 52.00,55.00 L 51.00,55.00 L 50.00,55.00 L 50.00,55.00 L 49.00,56.00 Z" fill="#E30613" stroke="none" /><path d="M 38.00,88.00 L 37.00,87.00 L 37.00,87.00 L 36.00,86.00 L 36.00,86.00 L 35.00,85.00 L 35.00,85.00 L 34.00,84.00 L 34.00,84.00 L 33.00,83.00 L 33.00,83.00 L 32.00,82.00 L 32.00,82.00 L 31.00,81.00 L 31.00,80.00 L 31.00,80.00 L 30.00,79.00 L 31.00,78.00 L 31.00,78.00 L 32.00,77.00 L 32.00,77.00 L 32.00,76.00 L 33.00,75.00 L 33.00,75.00 L 34.00,74.00 L 34.00,74.00 L 35.00,73.00 L 35.00,73.00 L 36.00,72.00 L 36.00,72.00 L 37.00,71.00 L 37.00,71.00 L 37.00,71.00 L 36.00,71.00 L 35.00,71.00 L 34.00,71.00 L 33.00,71.00 L 32.00,71.00 L 31.00,71.00 L 30.00,71.00 L 29.00,70.00 L 29.00,70.00 L 28.00,70.00 L 27.00,70.00 L 26.00,70.00 L 25.00,70.00 L 24.00,69.00 L 24.00,69.00 L 23.00,69.00 L 22.00,69.00 L 21.00,69.00 L 20.00,68.00 L 20.00,68.00 L 19.00,68.00 L 18.00,67.00 L 18.00,67.00 L 17.00,67.00 L 16.00,67.00 L 15.00,66.00 L 15.00,66.00 L 14.00,65.00 L 14.00,65.00 L 13.00,65.00 L 12.00,64.00 L 12.00,64.00 L 11.00,64.00 L 10.00,63.00 L 10.00,63.00 L 9.00,62.00 L 9.00,62.00 L 8.00,61.00 L 8.00,61.00 L 7.00,61.00 L 6.00,60.00 L 6.00,60.00 L 5.00,59.00 L 5.00,58.00 L 5.00,58.00 L 4.00,57.00 L 4.00,57.00 L 3.00,56.00 L 3.00,56.00 L 2.00,55.00 L 2.00,54.00 L 2.00,53.00 L 2.00,53.00 L 1.00,52.00 L 1.00,51.00 L 1.00,50.00 L 1.00,49.00 L 1.00,48.00 L 1.00,47.00 L 1.00,46.00 L 1.00,45.00 L 1.00,44.00 L 2.00,43.00 L 3.00,43.00 L 4.00,44.00 L 4.00,44.00 L 5.00,45.00 L 5.00,46.00 L 5.00,46.00 L 6.00,47.00 L 6.00,47.00 L 7.00,48.00 L 7.00,48.00 L 8.00,49.00 L 8.00,49.00 L 9.00,50.00 L 9.00,50.00 L 10.00,51.00 L 10.00,51.00 L 11.00,51.00 L 12.00,52.00 L 12.00,52.00 L 13.00,53.00 L 13.00,53.00 L 14.00,53.00 L 15.00,54.00 L 15.00,54.00 L 16.00,54.00 L 17.00,55.00 L 17.00,55.00 L 18.00,55.00 L 19.00,56.00 L 19.00,56.00 L 20.00,56.00 L 21.00,56.00 L 22.00,57.00 L 22.00,57.00 L 23.00,57.00 L 24.00,57.00 L 25.00,57.00 L 26.00,58.00 L 26.00,58.00 L 27.00,58.00 L 28.00,58.00 L 29.00,58.00 L 30.00,59.00 L 30.00,59.00 L 31.00,59.00 L 32.00,59.00 L 33.00,59.00 L 34.00,59.00 L 35.00,59.00 L 36.00,59.00 L 37.00,59.00 L 38.00,59.00 L 39.00,59.00 L 40.00,59.00 L 41.00,59.00 L 42.00,59.00 L 43.00,59.00 L 44.00,59.00 L 45.00,59.00 L 46.00,59.00 L 47.00,59.00 L 47.00,59.00 L 48.00,58.00 L 49.00,58.00 L 50.00,58.00 L 51.00,58.00 L 52.00,58.00 L 52.00,58.00 L 53.00,57.00 L 54.00,57.00 L 55.00,57.00 L 55.00,57.00 L 56.00,56.00 L 57.00,56.00 L 58.00,56.00 L 58.00,56.00 L 59.00,55.00 L 60.00,55.00 L 60.00,55.00 L 61.00,54.00 L 62.00,54.00 L 62.00,54.00 L 63.00,53.00 L 64.00,53.00 L 64.00,53.00 L 65.00,52.00 L 66.00,52.00 L 66.00,52.00 L 67.00,51.00 L 67.00,51.00 L 68.00,50.00 L 68.00,50.00 L 69.00,49.00 L 70.00,49.00 L 70.00,49.00 L 71.00,48.00 L 71.00,48.00 L 72.00,47.00 L 72.00,47.00 L 72.00,46.00 L 73.00,45.00 L 73.00,45.00 L 74.00,44.00 L 74.00,44.00 L 75.00,43.00 L 76.00,44.00 L 76.00,45.00 L 76.00,46.00 L 76.00,47.00 L 76.00,48.00 L 76.00,49.00 L 76.00,50.00 L 76.00,51.00 L 76.00,52.00 L 76.00,53.00 L 75.00,54.00 L 75.00,54.00 L 75.00,55.00 L 75.00,56.00 L 74.00,57.00 L 74.00,57.00 L 73.00,58.00 L 73.00,58.00 L 72.00,59.00 L 72.00,59.00 L 71.00,60.00 L 71.00,60.00 L 70.00,61.00 L 70.00,61.00 L 69.00,62.00 L 69.00,62.00 L 68.00,63.00 L 67.00,63.00 L 67.00,63.00 L 66.00,64.00 L 66.00,64.00 L 65.00,65.00 L 64.00,65.00 L 64.00,65.00 L 63.00,66.00 L 62.00,66.00 L 62.00,66.00 L 61.00,67.00 L 60.00,67.00 L 60.00,67.00 L 59.00,68.00 L 58.00,68.00 L 57.00,68.00 L 57.00,68.00 L 56.00,69.00 L 55.00,69.00 L 54.00,69.00 L 54.00,69.00 L 53.00,70.00 L 52.00,70.00 L 51.00,70.00 L 50.00,70.00 L 49.00,70.00 L 48.00,70.00 L 48.00,70.00 L 47.00,71.00 L 46.00,71.00 L 45.00,71.00 L 44.00,71.00 L 43.00,71.00 L 42.00,71.00 L 41.00,71.00 L 40.00,71.00 L 39.00,71.00 L 39.00,71.00 L 39.00,72.00 L 39.00,73.00 L 39.00,73.00 L 40.00,73.00 L 41.00,73.00 L 42.00,73.00 L 43.00,73.00 L 44.00,73.00 L 45.00,73.00 L 46.00,73.00 L 47.00,73.00 L 48.00,73.00 L 49.00,73.00 L 50.00,73.00 L 51.00,73.00 L 51.00,73.00 L 52.00,72.00 L 53.00,72.00 L 54.00,72.00 L 55.00,72.00 L 55.00,72.00 L 56.00,71.00 L 57.00,71.00 L 58.00,71.00 L 58.00,71.00 L 59.00,70.00 L 60.00,70.00 L 60.00,70.00 L 61.00,69.00 L 62.00,69.00 L 62.00,69.00 L 63.00,68.00 L 64.00,68.00 L 64.00,68.00 L 65.00,67.00 L 66.00,67.00 L 66.00,67.00 L 67.00,66.00 L 67.00,66.00 L 68.00,65.00 L 68.00,65.00 L 69.00,64.00 L 69.00,64.00 L 70.00,63.00 L 70.00,63.00 L 71.00,62.00 L 71.00,62.00 L 72.00,61.00 L 73.00,62.00 L 73.00,63.00 L 72.00,64.00 L 72.00,64.00 L 72.00,65.00 L 71.00,66.00 L 71.00,66.00 L 70.00,67.00 L 70.00,67.00 L 70.00,68.00 L 69.00,69.00 L 69.00,69.00 L 68.00,70.00 L 68.00,70.00 L 68.00,71.00 L 67.00,72.00 L 67.00,72.00 L 66.00,73.00 L 66.00,73.00 L 65.00,74.00 L 65.00,74.00 L 64.00,75.00 L 64.00,75.00 L 63.00,76.00 L 63.00,76.00 L 62.00,77.00 L 61.00,77.00 L 61.00,77.00 L 60.00,78.00 L 60.00,78.00 L 59.00,79.00 L 58.00,79.00 L 58.00,79.00 L 57.00,80.00 L 56.00,80.00 L 56.00,80.00 L 55.00,81.00 L 55.00,81.00 L 54.00,82.00 L 53.00,82.00 L 52.00,82.00 L 52.00,82.00 L 51.00,83.00 L 50.00,83.00 L 49.00,83.00 L 49.00,83.00 L 48.00,84.00 L 47.00,84.00 L 46.00,84.00 L 45.00,84.00 L 44.00,84.00 L 43.00,84.00 L 43.00,84.00 L 42.00,85.00 L 41.00,85.00 L 40.00,85.00 L 39.00,85.00 L 39.00,85.00 L 39.00,86.00 L 39.00,87.00 L 38.00,88.00 Z" fill="#E30613" stroke="none" /></svg>